<svg width="70" height="70" viewBox="0 0 70 70" fill="none" xmlns="http://www.w3.org/2000/svg">
<circle cx="35" cy="35" r="35" fill="#FAFAFA"/>
<g clip-path="url(#clip0_5011_6069)">
<path d="M29.079 18.4636H26.7666V22.2982H29.079V18.4636Z" fill="#13BDBA"/>
<path d="M29.079 24.4094H26.7666V28.244H29.079V24.4094Z" fill="#13BDBA"/>
<path d="M29.079 30.3552H26.7666V34.1898H29.079V30.3552Z" fill="#13BDBA"/>
<path d="M29.079 36.301H26.7666V40.1356H29.079V36.301Z" fill="#13BDBA"/>
<path d="M33.4667 36.301H31.1543V40.1356H33.4667V36.301Z" fill="#13BDBA"/>
<path d="M33.4667 30.3552H31.1543V34.1898H33.4667V30.3552Z" fill="#13BDBA"/>
<path d="M33.4667 42.2468H31.1543V46.0814H33.4667V42.2468Z" fill="#13BDBA"/>
<path d="M33.4667 18.4636H31.1543V22.2982H33.4667V18.4636Z" fill="#13BDBA"/>
<path d="M29.079 42.2468H26.7666V46.0814H29.079V42.2468Z" fill="#13BDBA"/>
<path d="M33.4667 24.4094H31.1543V28.244H33.4667V24.4094Z" fill="#13BDBA"/>
<path d="M42.2248 42.2468H39.9209V46.0814H42.2248V42.2468Z" fill="#13BDBA"/>
<path d="M42.2248 36.301H39.9209V40.1356H42.2248V36.301Z" fill="#13BDBA"/>
<path d="M46.621 36.301H44.3086V40.1356H46.621V36.301Z" fill="#13BDBA"/>
<path d="M46.621 42.2468H44.3086V46.0814H46.621V42.2468Z" fill="#13BDBA"/>
<path d="M37.8457 31.8373V14H18V55H51V31.8373H37.8457ZM35.5334 52.6562H20.3124V16.3525H35.5418V52.6562H35.5334ZM48.6876 52.6562H37.8457V34.1898H48.6876V52.6562Z" fill="black"/>
<path d="M24.7001 42.2468H22.3877V46.0814H24.7001V42.2468Z" fill="#13BDBA"/>
<path d="M24.7001 30.3552H22.3877V34.1898H24.7001V30.3552Z" fill="#13BDBA"/>
<path d="M24.7001 18.4636H22.3877V22.2982H24.7001V18.4636Z" fill="#13BDBA"/>
<path d="M24.7001 24.4094H22.3877V28.244H24.7001V24.4094Z" fill="#13BDBA"/>
<path d="M24.7001 36.301H22.3877V40.1356H24.7001V36.301Z" fill="#13BDBA"/>
</g>
<defs>
<clipPath id="clip0_5011_6069">
<rect width="33" height="41" fill="white" transform="translate(18 14)"/>
</clipPath>
</defs>
</svg>
