<svg width="15" height="19" viewBox="0 0 15 19" fill="none" xmlns="http://www.w3.org/2000/svg">
<g clip-path="url(#clip0_5011_6485)">
<path d="M5.03545 2.06848H3.98438V3.84549H5.03545V2.06848Z" fill="#13BDBA"/>
<path d="M5.03545 4.82385H3.98438V6.60086H5.03545V4.82385Z" fill="#13BDBA"/>
<path d="M5.03545 7.57922H3.98438V9.35623H5.03545V7.57922Z" fill="#13BDBA"/>
<path d="M5.03545 10.3346H3.98438V12.1116H5.03545V10.3346Z" fill="#13BDBA"/>
<path d="M7.03057 10.3346H5.97949V12.1116H7.03057V10.3346Z" fill="#13BDBA"/>
<path d="M7.03057 7.57922H5.97949V9.35623H7.03057V7.57922Z" fill="#13BDBA"/>
<path d="M7.03057 13.09H5.97949V14.867H7.03057V13.09Z" fill="#13BDBA"/>
<path d="M7.03057 2.06848H5.97949V3.84549H7.03057V2.06848Z" fill="#13BDBA"/>
<path d="M5.03545 13.09H3.98438V14.867H5.03545V13.09Z" fill="#13BDBA"/>
<path d="M7.03057 4.82385H5.97949V6.60086H7.03057V4.82385Z" fill="#13BDBA"/>
<path d="M11.0111 13.09H9.96387V14.867H11.0111V13.09Z" fill="#13BDBA"/>
<path d="M11.0111 10.3346H9.96387V12.1116H11.0111V10.3346Z" fill="#13BDBA"/>
<path d="M13.0091 10.3346H11.958V12.1116H13.0091V10.3346Z" fill="#13BDBA"/>
<path d="M13.0091 13.09H11.958V14.867H13.0091V13.09Z" fill="#13BDBA"/>
<path d="M9.02079 8.26608V0H0V19H15V8.26608H9.02079ZM7.96971 17.9138H1.05108V1.09016H7.97356V17.9138H7.96971ZM13.9489 17.9138H9.02079V9.35624H13.9489V17.9138Z" fill="white"/>
<path d="M3.04522 13.09H1.99414V14.867H3.04522V13.09Z" fill="#13BDBA"/>
<path d="M3.04522 7.57922H1.99414V9.35623H3.04522V7.57922Z" fill="#13BDBA"/>
<path d="M3.04522 2.06848H1.99414V3.84549H3.04522V2.06848Z" fill="#13BDBA"/>
<path d="M3.04522 4.82385H1.99414V6.60086H3.04522V4.82385Z" fill="#13BDBA"/>
<path d="M3.04522 10.3346H1.99414V12.1116H3.04522V10.3346Z" fill="#13BDBA"/>
</g>
<defs>
<clipPath id="clip0_5011_6485">
<rect width="15" height="19" fill="white"/>
</clipPath>
</defs>
</svg>
