<svg width="15" height="15" viewBox="0 0 15 15" fill="none" xmlns="http://www.w3.org/2000/svg">
<g clip-path="url(#clip0_5011_661)">
<path d="M1.88711 9.84063C3.29961 9.1 4.88711 8.70938 6.49649 8.70938C7.46524 8.70938 8.42148 8.84688 9.34023 9.12188L9.40586 9.14062L9.65273 8.30937L9.58711 8.29063C8.59024 7.99375 7.54961 7.84375 6.48086 7.84375C4.65273 7.84375 2.84023 8.3125 1.24336 9.20313L1.02148 9.32813V11.6781H7.45586V10.8125H1.88711V9.84375V9.84063Z" fill="white"/>
<path d="M6.64355 6.9281C8.27168 6.9281 9.59668 5.6031 9.59668 3.97498C9.59668 2.34685 8.2748 1.02185 6.64355 1.02185C5.0123 1.02185 3.69043 2.34685 3.69043 3.97498C3.69043 5.6031 5.01543 6.9281 6.64355 6.9281ZM4.55605 3.97498C4.55605 2.82498 5.49355 1.88748 6.64355 1.88748C7.79355 1.88748 8.73106 2.82498 8.73106 3.97498C8.73106 5.12498 7.79355 6.06248 6.64355 6.06248C5.49355 6.06248 4.55605 5.12498 4.55605 3.97498Z" fill="white"/>
<path d="M11.3423 14.0625H10.5327C10.5327 13.0347 9.18453 11.6794 8.15316 11.6548C8.1426 11.6548 8.13556 11.6548 8.125 11.6548V10.8452C9.15989 10.8452 10.5327 9.47239 10.5327 8.4375H11.3423C11.3423 9.47239 12.7151 10.8452 13.75 10.8452V11.6548C12.7151 11.6548 11.3423 13.0276 11.3423 14.0625ZM9.44853 11.25C9.74069 11.419 10.0223 11.6407 10.2863 11.9012C10.5468 12.1617 10.7685 12.4468 10.9375 12.739C11.286 12.1441 11.8281 11.5985 12.4265 11.25C11.8316 10.9015 11.2895 10.3594 10.9375 9.76103C10.589 10.3594 10.0469 10.9015 9.44853 11.25Z" fill="#13BDBA"/>
</g>
<defs>
<clipPath id="clip0_5011_661">
<rect width="15" height="15" fill="white"/>
</clipPath>
</defs>
</svg>
