<svg width="54" height="54" viewBox="0 0 54 54" fill="none" xmlns="http://www.w3.org/2000/svg">
<circle cx="27" cy="27" r="27" fill="#FAFAFA"/>
<g clip-path="url(#clip0_5011_413)">
<path d="M40.3034 34.0251C36.1034 31.6844 31.3419 30.4521 26.5003 30.4521C21.6586 30.4521 16.8971 31.6844 12.6971 34.0251L12.1211 34.3459V40.4928H40.8794V34.3459L40.3034 34.0251ZM14.3596 38.2542V35.673C18.0784 33.7261 22.2784 32.6907 26.544 32.6907C30.8096 32.6907 34.9221 33.7188 38.6482 35.673V38.2542H14.3596Z" fill="#13BDBA"/>
<path d="M26.8936 28.0094C31.1665 28.0094 34.6447 24.5313 34.6447 20.2584C34.6447 15.9854 31.1665 12.5073 26.8936 12.5073C22.6207 12.5073 19.1426 15.9854 19.1426 20.2584C19.1426 24.5313 22.6207 28.0094 26.8936 28.0094ZM26.8936 14.7459C29.9342 14.7459 32.4061 17.2177 32.4061 20.2584C32.4061 23.299 29.9342 25.7709 26.8936 25.7709C23.853 25.7709 21.3811 23.299 21.3811 20.2584C21.3811 17.2177 23.853 14.7459 26.8936 14.7459Z" fill="black"/>
</g>
<defs>
<clipPath id="clip0_5011_413">
<rect width="35" height="35" fill="white" transform="translate(9 9)"/>
</clipPath>
</defs>
</svg>
