<svg width="70" height="70" viewBox="0 0 70 70" fill="none" xmlns="http://www.w3.org/2000/svg">
<circle cx="35" cy="35" r="35" fill="#C1C1C1"/>
<path d="M47 47.0945V44.1485C47 42.5858 46.3679 41.0871 45.2426 39.9821C44.1174 38.8771 42.5913 38.2563 41 38.2563H29C27.4087 38.2563 25.8826 38.8771 24.7574 39.9821C23.6321 41.0871 23 42.5858 23 44.1485V47.0945" stroke="#1C1C1E" stroke-width="2" stroke-linecap="round" stroke-linejoin="round"/>
<path d="M35 32.3643C38.3137 32.3643 41 29.7263 41 26.4722C41 23.2181 38.3137 20.5801 35 20.5801C31.6863 20.5801 29 23.2181 29 26.4722C29 29.7263 31.6863 32.3643 35 32.3643Z" stroke="#1C1C1E" stroke-width="2" stroke-linecap="round" stroke-linejoin="round"/>
</svg>
