<svg width="41" height="41" viewBox="0 0 41 41" fill="none" xmlns="http://www.w3.org/2000/svg">
<path d="M14.5223 37.5659H11.943C11.943 34.2914 7.64796 29.9739 4.36218 29.8954C4.32853 29.8954 4.3061 29.8954 4.27246 29.8954V27.3161C7.56946 27.3161 11.943 22.9425 11.943 19.6455H14.5223C14.5223 22.9425 18.8959 27.3161 22.1929 27.3161V29.8954C18.8959 29.8954 14.5223 34.2689 14.5223 37.5659ZM8.48903 28.6057C9.41981 29.144 10.317 29.8505 11.158 30.6804C11.9879 31.5102 12.6944 32.4186 13.2327 33.3494C14.3429 31.4541 16.0699 29.7159 17.9763 28.6057C16.0811 27.4955 14.3541 25.7685 13.2327 23.8621C12.1225 25.7685 10.3955 27.4955 8.48903 28.6057Z" fill="#13BDBA"/>
<path d="M37.7545 12.078L29.1189 3.44237L29.0847 3.4082H6.72266V18.2109H9.49016V6.18424H25.5656V15.6057H34.987V34.8244H22.2343V37.5919H37.7545V12.078ZM28.3331 12.8382V6.56862L34.6027 12.8382H28.3331Z" fill="black"/>
</svg>
