<svg width="27" height="27" viewBox="0 0 27 27" fill="none" xmlns="http://www.w3.org/2000/svg">
<path fill-rule="evenodd" clip-rule="evenodd" d="M13.5001 0.000732422C6.04463 0.000732422 0.000732422 6.04463 0.000732422 13.5001C0.000732422 20.9556 6.04463 26.9996 13.5001 26.9996C20.9556 26.9996 26.9996 20.9556 26.9996 13.5001C26.9996 6.04463 20.9556 0.000732422 13.5001 0.000732422ZM2.41145 13.5001C2.41145 7.37602 7.37602 2.41145 13.5001 2.41145C19.6242 2.41145 24.5889 7.37602 24.5889 13.5001C24.5889 19.6244 19.6242 24.5889 13.5001 24.5889C7.37602 24.5889 2.41145 19.6244 2.41145 13.5001ZM13.4998 7.95515C12.3015 7.95515 11.3301 8.92653 11.3301 10.1248C11.3301 10.7905 10.7905 11.3301 10.1248 11.3301C9.45909 11.3301 8.91943 10.7905 8.91943 10.1248C8.91943 7.59512 10.9701 5.54443 13.4998 5.54443C16.0295 5.54443 18.0801 7.59512 18.0801 10.1248C18.0801 12.2373 16.65 14.0158 14.7051 14.5449V15.4284C14.7051 16.0941 14.1655 16.6337 13.4998 16.6337C12.8341 16.6337 12.2944 16.0941 12.2944 15.4284V13.4998C12.2944 12.8341 12.8341 12.2944 13.4998 12.2944C14.6981 12.2944 15.6694 11.3231 15.6694 10.1248C15.6694 8.92653 14.6981 7.95515 13.4998 7.95515ZM13.4998 17.598C14.4318 17.598 15.1873 18.3535 15.1873 19.2855C15.1873 20.2174 14.4318 20.973 13.4998 20.973C12.5678 20.973 11.8123 20.2174 11.8123 19.2855C11.8123 18.3535 12.5678 17.598 13.4998 17.598Z" fill="#146A67"/>
</svg>
