<svg width="20" height="20" viewBox="0 0 20 20" fill="none" xmlns="http://www.w3.org/2000/svg">
<g clip-path="url(#clip0_754_3010)">
<path d="M19.1665 3.33337V8.33337H14.1665" stroke="#4B4B4D" stroke-width="2" stroke-linecap="round" stroke-linejoin="round"/>
<path d="M0.833496 16.6666V11.6666H5.8335" stroke="#4B4B4D" stroke-width="2" stroke-linecap="round" stroke-linejoin="round"/>
<path d="M3.92467 7.49998C4.34731 6.30564 5.06562 5.23782 6.01256 4.39616C6.95951 3.55451 8.10423 2.96645 9.33991 2.68686C10.5756 2.40727 11.862 2.44527 13.079 2.79729C14.296 3.14932 15.4041 3.80391 16.2997 4.69998L20.1663 8.33331M1.83301 11.6666L5.69967 15.3C6.5953 16.1961 7.70332 16.8506 8.92035 17.2027C10.1374 17.5547 11.4238 17.5927 12.6594 17.3131C13.8951 17.0335 15.0398 16.4455 15.9868 15.6038C16.9337 14.7621 17.652 13.6943 18.0747 12.5" stroke="#4B4B4D" stroke-width="2" stroke-linecap="round" stroke-linejoin="round"/>
</g>
<defs>
<clipPath id="clip0_754_3010">
<rect width="20" height="20" fill="white"/>
</clipPath>
</defs>
</svg>
