<svg width="401" height="64" viewBox="0 0 401 64" fill="none" xmlns="http://www.w3.org/2000/svg">
<path d="M87.3089 10.6924C96.0515 10.6924 104.794 16.1038 106.877 26.9268H118.288C116.053 8.86483 101.903 0 87.6717 0C73.4402 0 58.6117 9.13777 56.271 26.9268H67.7288C69.7769 16.175 78.578 10.6924 87.3089 10.6924Z" fill="#1C1C1E"/>
<path d="M87.403 53.2958C78.7073 53.2958 70.0349 47.8724 67.8229 37.2275H56.2832C58.6824 54.9097 73.2417 64 87.6605 64C102.079 64 115.972 55.1827 118.265 37.2275H106.843C104.724 47.9318 96.0988 53.2958 87.403 53.2958Z" fill="#1C1C1E"/>
<path d="M204.45 10.6924C213.193 10.6924 221.935 16.1038 224.018 26.9268H235.429C233.194 8.86483 219.044 0 204.813 0C190.581 0 175.753 9.13777 173.412 26.9268H184.87C186.918 16.175 195.719 10.6924 204.45 10.6924Z" fill="#1C1C1E"/>
<path d="M204.544 53.2958C195.848 53.2958 187.176 47.8724 184.964 37.2275H173.424C175.824 54.9097 190.383 64 204.802 64C219.22 64 233.113 55.1827 235.407 37.2275H223.984C221.865 47.9318 213.24 53.2958 204.544 53.2958Z" fill="#1C1C1E"/>
<path d="M337.192 26.6063H300.314V37.3936H337.192V26.6063Z" fill="#EA272D"/>
<path d="M346.765 52.6667H300.314V63.4541H346.765V52.6667Z" fill="#1C1C1E"/>
<path d="M346.765 0.533997H300.314V11.3213H346.765V0.533997Z" fill="#1C1C1E"/>
<path d="M141.11 0.533997H129.149V42.366H141.11V0.533997Z" fill="#EA272D"/>
<path d="M145.148 52.6667H141.122H129.149V63.4541H171.61V52.6667H145.148Z" fill="#1C1C1E"/>
<path d="M381.689 26.4283H375.135C362.987 26.4283 363.607 11.6892 375.135 11.6892H397.302V0.533997H372.654C346.766 0.533997 347.211 37.5598 372.654 37.5598H379.208C391.263 37.5598 390.643 52.2989 379.208 52.2989H374.246V63.4422H381.689C407.66 63.4422 407.215 26.4164 381.689 26.4164V26.4283Z" fill="#1C1C1E"/>
<path d="M364.087 52.3107H354.209V63.4541H364.087V52.3107Z" fill="#EA272D"/>
<path d="M258.825 52.6667H246.864V63.4541H258.825V52.6667Z" fill="#EA272D"/>
<path d="M293.491 63.4541L278.861 39.0076C299.343 33.43 296.943 0.533997 272.658 0.533997H246.864V11.6773H270.177C283.824 11.6773 283.122 28.6593 270.177 28.6593H258.989L279.423 63.4422H293.491V63.4541Z" fill="#1C1C1E"/>
<path d="M0 0.533997V11.7723L10.1587 11.7011V0.533997H0Z" fill="#EA272D"/>
<path d="M20.3174 0.700134V12.5199C43.1862 18.2755 40.8338 52.4769 13.2016 52.3107L0 52.2158V63.4541H16.8415C57.7572 63.4541 58.9042 4.07043 20.3174 0.700134Z" fill="#1C1C1E"/>
</svg>
