<svg width="74" height="74" viewBox="0 0 74 74" fill="none" xmlns="http://www.w3.org/2000/svg">
<g clip-path="url(#clip0_5011_4553)">
<path d="M63.796 36.9994C38.5597 37.8606 37.8611 38.5592 37 63.7939C36.1388 38.5581 35.4402 37.8606 10.2051 36.9994C35.4413 36.1383 36.14 35.4397 37 10.205C37.8611 35.4408 38.5597 36.1383 63.796 36.9994Z" fill="#EA272D"/>
<path d="M36.9989 0.925466C56.891 0.925466 73.0734 17.1087 73.0734 36.9994C73.0734 56.8902 56.891 73.0734 36.9989 73.0734C17.1067 73.0734 0.92548 56.8902 0.92548 36.9994C0.92548 17.1087 17.1078 0.925466 36.9989 0.925466ZM36.9989 0C16.565 0 0 16.5658 0 36.9994C0 57.433 16.565 73.9989 36.9989 73.9989C57.4328 73.9989 73.9989 57.433 73.9989 36.9994C73.9989 16.5658 57.4351 0 36.9989 0Z" fill="#EA272D"/>
<path d="M36.9991 0.925466C49.7267 0.925466 60.0796 17.1087 60.0796 36.9994C60.0796 56.8902 49.7267 73.0734 36.9991 73.0734C24.2715 73.0734 13.9196 56.8902 13.9196 36.9994C13.9196 17.1087 24.2737 0.925466 36.9991 0.925466ZM36.9991 0C23.7421 0 12.9941 16.5658 12.9941 36.9994C12.9941 57.433 23.7421 73.9989 37.0002 73.9989C50.2582 73.9989 61.0062 57.433 61.0062 36.9994C61.0062 16.5658 50.2582 0 36.9991 0Z" fill="#EA272D"/>
<path d="M36.9989 0.925466C40.8679 0.925466 45.177 15.7408 45.177 36.9994C45.177 58.2581 40.8667 73.0734 36.9989 73.0734C33.1311 73.0734 28.822 58.2581 28.822 36.9994C28.822 15.7408 33.1322 0.925466 36.9989 0.925466ZM36.9989 0C31.972 0 27.8965 16.5658 27.8965 36.9994C27.8965 57.433 31.972 73.9989 36.9989 73.9989C42.0259 73.9989 46.1025 57.433 46.1025 36.9994C46.1025 16.5658 42.0281 0 36.9989 0Z" fill="#EA272D"/>
<path d="M36.9989 0.925466C56.891 0.925466 73.0734 17.1087 73.0734 36.9994C73.0734 56.8902 56.891 73.0734 36.9989 73.0734C17.1067 73.0734 0.92548 56.8902 0.92548 36.9994C0.92548 17.1087 17.1078 0.925466 36.9989 0.925466ZM36.9989 0C16.565 0 0 16.5658 0 36.9994C0 57.433 16.565 73.9989 36.9989 73.9989C57.4328 73.9989 73.9989 57.433 73.9989 36.9994C73.9989 16.5658 57.4351 0 36.9989 0Z" fill="#EA272D"/>
<path d="M36.9989 13.9203C56.891 13.9203 73.0734 24.2731 73.0734 37.0005C73.0734 49.728 56.891 60.0808 36.9989 60.0808C17.1067 60.0808 0.92548 49.7257 0.92548 36.9994C0.92548 24.2731 17.1078 13.9203 36.9989 13.9203ZM36.9989 12.9949C16.565 12.9949 0 23.7416 0 36.9994C0 50.2573 16.565 61.0051 36.9989 61.0051C57.4328 61.0051 73.9989 50.2573 73.9989 36.9994C73.9989 23.7416 57.4351 12.9949 36.9989 12.9949Z" fill="#EA272D"/>
<path d="M36.9989 28.8226C58.2578 28.8226 73.0734 33.1317 73.0734 36.9994C73.0734 40.8672 58.2578 45.1763 36.9989 45.1763C15.7399 45.1763 0.92548 40.8672 0.92548 36.9994C0.92548 33.1317 15.7399 28.8226 36.9989 28.8226ZM36.9989 27.8972C16.565 27.8972 0 31.9726 0 36.9994C0 42.0263 16.565 46.1017 36.9989 46.1017C57.4328 46.1017 73.9989 42.0263 73.9989 36.9994C73.9989 31.9726 57.4339 27.8972 36.9989 27.8972Z" fill="#EA272D"/>
</g>
<defs>
<clipPath id="clip0_5011_4553">
<rect width="74" height="74" fill="white"/>
</clipPath>
</defs>
</svg>
