<svg width="36" height="36" viewBox="0 0 36 36" fill="none" xmlns="http://www.w3.org/2000/svg">
<path d="M4.52965 23.6173C7.91965 21.8398 11.7296 20.9023 15.5921 20.9023C17.9171 20.9023 20.2121 21.2323 22.4171 21.8923L22.5746 21.9373L23.1671 19.9423L23.0096 19.8973C20.6171 19.1848 18.1196 18.8248 15.5546 18.8248C11.1671 18.8248 6.81715 19.9498 2.98465 22.0873L2.45215 22.3873V28.0273H17.8946V25.9498H4.52965V23.6248V23.6173Z" fill="black"/>
<path d="M15.9449 16.6271C19.8524 16.6271 23.0324 13.4471 23.0324 9.53965C23.0324 5.63215 19.8599 2.45215 15.9449 2.45215C12.0299 2.45215 8.85742 5.63215 8.85742 9.53965C8.85742 13.4471 12.0374 16.6271 15.9449 16.6271ZM10.9349 9.53965C10.9349 6.77965 13.1849 4.52965 15.9449 4.52965C18.7049 4.52965 20.9549 6.77965 20.9549 9.53965C20.9549 12.2996 18.7049 14.5496 15.9449 14.5496C13.1849 14.5496 10.9349 12.2996 10.9349 9.53965Z" fill="black"/>
<path d="M28.02 25.9423V20.4073H25.9425V25.9423H20.415V28.0198H25.9425V33.5473H28.02V28.0198H33.5475V25.9423H28.02Z" fill="#13BDBA"/>
</svg>
