<svg width="36" height="36" viewBox="0 0 36 36" fill="none" xmlns="http://www.w3.org/2000/svg">
<path d="M16.5 6H6C5.20435 6 4.44129 6.31607 3.87868 6.87868C3.31607 7.44129 3 8.20435 3 9V30C3 30.7956 3.31607 31.5587 3.87868 32.1213C4.44129 32.6839 5.20435 33 6 33H27C27.7956 33 28.5587 32.6839 29.1213 32.1213C29.6839 31.5587 30 30.7956 30 30V19.5" stroke="#1C1C1E" stroke-width="2" stroke-linecap="round" stroke-linejoin="round"/>
<path d="M25.75 3.74985C26.3467 3.15311 27.1561 2.81787 28 2.81787C28.8439 2.81787 29.6533 3.15311 30.25 3.74985C30.8467 4.34659 31.182 5.15594 31.182 5.99985C31.182 6.84377 30.8467 7.65311 30.25 8.24985L16 22.4999L10 23.9999L11.5 17.9999L25.75 3.74985Z" stroke="#1C1C1E" stroke-width="2" stroke-linecap="round" stroke-linejoin="round"/>
</svg>
