<svg width="36" height="36" viewBox="0 0 36 36" fill="none" xmlns="http://www.w3.org/2000/svg">
<path d="M4.53063 23.6175C7.92063 21.84 11.7306 20.9025 15.5931 20.9025C17.9181 20.9025 20.2131 21.2325 22.4181 21.8925L22.5756 21.9375L23.1681 19.9425L23.0106 19.8975C20.6181 19.185 18.1206 18.825 15.5556 18.825C11.1681 18.825 6.81813 19.95 2.98563 22.0875L2.45312 22.3875V28.0275H17.8956V25.95H4.53063V23.625V23.6175Z" fill="white"/>
<path d="M15.9449 16.6275C19.8524 16.6275 23.0324 13.4475 23.0324 9.54C23.0324 5.6325 19.8599 2.4525 15.9449 2.4525C12.0299 2.4525 8.85742 5.6325 8.85742 9.54C8.85742 13.4475 12.0374 16.6275 15.9449 16.6275ZM10.9349 9.54C10.9349 6.78 13.1849 4.53 15.9449 4.53C18.7049 4.53 20.9549 6.78 20.9549 9.54C20.9549 12.3 18.7049 14.55 15.9449 14.55C13.1849 14.55 10.9349 12.3 10.9349 9.54Z" fill="white"/>
<path d="M27.2215 33.75H25.2785C25.2785 31.2832 22.0429 28.0306 19.5676 27.9715C19.5422 27.9715 19.5253 27.9715 19.5 27.9715V26.0285C21.9837 26.0285 25.2785 22.7337 25.2785 20.25H27.2215C27.2215 22.7337 30.5163 26.0285 33 26.0285V27.9715C30.5163 27.9715 27.2215 31.2663 27.2215 33.75ZM22.6765 27C23.3777 27.4055 24.0535 27.9377 24.6871 28.5629C25.3123 29.188 25.8445 29.8723 26.25 30.5735C27.0864 29.1458 28.3874 27.8363 29.8235 27C28.3958 26.1636 27.0948 24.8626 26.25 23.4265C25.4136 24.8626 24.1126 26.1636 22.6765 27Z" fill="white"/>
</svg>
