<svg width="36" height="36" viewBox="0 0 36 36" fill="none" xmlns="http://www.w3.org/2000/svg">
<g clip-path="url(#clip0_5011_14926)">
<path d="M4.53014 23.6175C7.92014 21.84 11.7301 20.9025 15.5926 20.9025C17.9176 20.9025 20.2126 21.2325 22.4176 21.8925L22.5751 21.9375L23.1676 19.9425L23.0101 19.8975C20.6176 19.185 18.1201 18.825 15.5551 18.825C11.1676 18.825 6.81764 19.95 2.98514 22.0875L2.45264 22.3875V28.0275H17.8951V25.95H4.53014V23.625V23.6175Z" fill="black"/>
<path d="M15.9449 16.6274C19.8524 16.6274 23.0324 13.4474 23.0324 9.53989C23.0324 5.63239 19.8599 2.45239 15.9449 2.45239C12.0299 2.45239 8.85742 5.63239 8.85742 9.53989C8.85742 13.4474 12.0374 16.6274 15.9449 16.6274ZM10.9349 9.53989C10.9349 6.77989 13.1849 4.52989 15.9449 4.52989C18.7049 4.52989 20.9549 6.77989 20.9549 9.53989C20.9549 12.2999 18.7049 14.5499 15.9449 14.5499C13.1849 14.5499 10.9349 12.2999 10.9349 9.53989Z" fill="black"/>
<path d="M27.2215 33.75H25.2785C25.2785 31.2832 22.0429 28.0307 19.5676 27.9715C19.5422 27.9715 19.5253 27.9715 19.5 27.9715V26.0285C21.9837 26.0285 25.2785 22.7337 25.2785 20.25H27.2215C27.2215 22.7337 30.5163 26.0285 33 26.0285V27.9715C30.5163 27.9715 27.2215 31.2663 27.2215 33.75ZM22.6765 27C23.3777 27.4055 24.0535 27.9377 24.6871 28.5629C25.3123 29.188 25.8445 29.8723 26.25 30.5735C27.0864 29.1458 28.3874 27.8364 29.8235 27C28.3958 26.1636 27.0948 24.8626 26.25 23.4265C25.4136 24.8626 24.1126 26.1636 22.6765 27Z" fill="#13BDBA"/>
</g>
<defs>
<clipPath id="clip0_5011_14926">
<rect width="36" height="36" fill="white"/>
</clipPath>
</defs>
</svg>
