<svg width="22" height="22" viewBox="0 0 22 22" fill="none" xmlns="http://www.w3.org/2000/svg">
<g clip-path="url(#clip0_5011_7865)">
<g clip-path="url(#clip1_5011_7865)">
<path d="M11.316 1.47119C6.06354 1.47119 1.78729 5.74744 1.78729 10.9999C1.78729 13.0029 2.43354 14.9874 3.60687 16.6054L1.15479 20.5287H11.316C16.5685 20.5287 20.8448 16.2524 20.8448 10.9999C20.8448 5.74744 16.5685 1.47119 11.316 1.47119ZM5.53187 16.4954L5.16979 16.0599C4.00104 14.6391 3.35937 12.8424 3.35937 11.0045C3.35937 6.61827 6.92979 3.04786 11.316 3.04786C15.7023 3.04786 19.2727 6.61827 19.2727 11.0045C19.2727 15.3908 15.7023 18.9612 11.316 18.9612H3.99187L5.53187 16.4954Z" fill="white"/>
<path d="M8.31862 10.0603H6.43945V11.9395H8.31862V10.0603Z" fill="#13BDBA"/>
<path d="M12.2556 10.0603H10.3765V11.9395H12.2556V10.0603Z" fill="#13BDBA"/>
<path d="M16.1882 10.0603H14.3091V11.9395H16.1882V10.0603Z" fill="#13BDBA"/>
</g>
</g>
<defs>
<clipPath id="clip0_5011_7865">
<rect width="22" height="22" fill="white"/>
</clipPath>
<clipPath id="clip1_5011_7865">
<rect width="22" height="22" fill="white"/>
</clipPath>
</defs>
</svg>
