<svg width="140" height="21" viewBox="0 0 140 21" fill="none" xmlns="http://www.w3.org/2000/svg">
<path d="M128.265 0.706909H139.811L126.976 20.1383H115.43L128.265 0.706909Z" fill="#EA272D"/>
<path d="M111.684 0.706909H123.229L110.394 20.1383H98.8491L111.684 0.706909Z" fill="#EA272D"/>
<path d="M95.1031 0.706909H106.648L93.8134 20.1383H82.2681L95.1031 0.706909Z" fill="#EA272D"/>
<path d="M79.5659 0.706909H91.1112L78.2455 20.1383H66.7002L79.5659 0.706909Z" fill="#EA272D"/>
<path d="M62.9848 0.706909H74.5302L61.6645 20.1383H50.1191L62.9848 0.706909Z" fill="#EA272D"/>
<path d="M46.3731 0.706909H57.9184L45.0834 20.1383H33.5381L46.3731 0.706909Z" fill="#EA272D"/>
<path d="M29.792 0.706909H41.3374L28.5024 20.1383H16.957L29.792 0.706909Z" fill="#EA272D"/>
<path d="M13.211 0.706909H24.7563L11.9213 20.1383H0.375977L13.211 0.706909Z" fill="#EA272D"/>
</svg>
