<svg width="70" height="70" viewBox="0 0 70 70" fill="none" xmlns="http://www.w3.org/2000/svg">
<circle cx="35" cy="35" r="35" fill="#C1C1C1"/>
<path d="M38 20H26C25.2044 20 24.4413 20.3161 23.8787 20.8787C23.3161 21.4413 23 22.2044 23 23V47C23 47.7956 23.3161 48.5587 23.8787 49.1213C24.4413 49.6839 25.2044 50 26 50H44C44.7956 50 45.5587 49.6839 46.1213 49.1213C46.6839 48.5587 47 47.7956 47 47V29L38 20Z" stroke="#777777" stroke-width="2" stroke-linecap="round" stroke-linejoin="round"/>
<path d="M38 20V29H47" stroke="#777777" stroke-width="2" stroke-linecap="round" stroke-linejoin="round"/>
<path d="M41 36.5H29" stroke="#777777" stroke-width="2" stroke-linecap="round" stroke-linejoin="round"/>
<path d="M41 42.5H29" stroke="#777777" stroke-width="2" stroke-linecap="round" stroke-linejoin="round"/>
<path d="M32 30.5H30.5H29" stroke="#777777" stroke-width="2" stroke-linecap="round" stroke-linejoin="round"/>
</svg>
