<svg width="317" height="295" viewBox="0 0 317 295" fill="none" xmlns="http://www.w3.org/2000/svg">
<path d="M242.399 293.976C252.658 293.002 306.922 292.283 317 295L317 0L0 0C0.137026 3.7141 0.291444 13.9099 0.517325 18.4301C2.2368 36.337 4.64022 45.5131 11.5347 59.9156C16.6284 71.1114 21.1726 78.3472 32.067 93.2064C42.4527 104.667 50.2839 109.761 66.6215 117.278L94.6658 128.546C108.602 134.888 113.426 139.171 119.204 147.496C125.623 157.042 127.446 163.848 129.22 177.202C129.889 177.19 129.22 187.445 136.231 223.809C143.242 260.173 177.797 281.172 182.304 283.732C186.811 286.293 204.841 294.845 221.866 295C229.507 294.631 233.923 294.413 242.399 293.976Z" fill="#1E1C1C" fill-opacity="0.17"/>
<path d="M281.399 293.976C291.658 293.002 306.861 291.259 316.938 293.976L316.938 0L39 0C39.137 3.7141 39.2914 13.9099 39.5173 18.4301C41.2368 36.337 43.6402 45.5131 50.5347 59.9156C55.6284 71.1114 60.1726 78.3472 71.067 93.2064C81.4527 104.667 89.2839 109.761 105.622 117.278L133.666 128.546C147.602 134.888 152.426 139.171 158.204 147.496C164.623 157.042 166.446 163.848 168.22 177.202C168.889 177.19 168.22 187.445 175.231 223.809C182.242 260.173 216.797 281.171 221.304 283.732C225.811 286.293 243.841 294.845 260.866 295C268.507 294.631 272.923 294.413 281.399 293.976Z" fill="#1C1C1E"/>
</svg>
