<svg width="363" height="358" viewBox="0 0 363 358" fill="none" xmlns="http://www.w3.org/2000/svg">
<path d="M8.37396 18.5536C5.49935 11.3506 3.60198 7.28125 0 0V358H363C358.36 349.491 352.893 339.542 343.332 326.783C330.928 313.39 321.574 307.438 302.061 298.653L268.565 285.486C251.92 278.075 246.157 273.07 239.256 263.342C231.59 252.186 229.412 244.233 227.293 228.628C226.494 228.642 227.293 216.658 218.919 174.165C210.545 131.671 169.274 107.132 163.89 104.14C158.507 101.147 136.973 91.1533 116.637 90.9725C107.512 91.4036 102.237 91.658 92.1135 92.1696C79.8597 93.3068 73.0471 92.9507 61.0103 89.7755C51.4747 87.3142 46.3748 84.3831 37.6828 76.6085C27.9124 65.0866 23.1521 57.8259 17.3461 41.8952L8.37396 18.5536Z" fill="#1E1C1C" fill-opacity="0.17"/>
<path d="M7.00001 76.5C4.59704 70.4825 3.01099 67.0829 0 61L5.96046e-08 358.408H303.441C299.562 351.3 294.992 344.659 287 334C276.631 322.811 268.812 317.839 252.5 310.5L224.5 299.5C210.586 293.308 205.769 289.127 200 281C193.592 271.681 191.772 265.036 190 252C189.332 252.011 190 242 183 206.5C176 171 141.5 150.5 137 148C132.5 145.5 114.499 137.151 97.5 137C89.8717 137.36 85.4626 137.573 77 138C66.7567 138.95 61.0619 138.653 51 136C43.029 133.944 38.7658 131.495 31.5 125C23.3327 115.374 19.3535 109.309 14.5 96L7.00001 76.5Z" fill="#1C1C1E"/>
</svg>
