<svg width="39" height="39" viewBox="0 0 39 39" fill="none" xmlns="http://www.w3.org/2000/svg">
<path d="M28.5 29.625V27.375C28.5 26.1815 28.0259 25.0369 27.182 24.193C26.3381 23.3491 25.1935 22.875 24 22.875H15C13.8065 22.875 12.6619 23.3491 11.818 24.193C10.9741 25.0369 10.5 26.1815 10.5 27.375V29.625" stroke="#1C1C1E" stroke-width="2" stroke-linecap="round" stroke-linejoin="round"/>
<path d="M19.5 18.375C21.9853 18.375 24 16.3603 24 13.875C24 11.3897 21.9853 9.375 19.5 9.375C17.0147 9.375 15 11.3897 15 13.875C15 16.3603 17.0147 18.375 19.5 18.375Z" stroke="#1C1C1E" stroke-width="2" stroke-linecap="round" stroke-linejoin="round"/>
<circle cx="19.5" cy="19.5" r="18.5" stroke="#1C1C1E" stroke-width="2"/>
</svg>
